<svg xmlns="http://www.w3.org/2000/svg" width="107.218" height="107.218" viewBox="0 0 107.218 107.218">
  <g id="Group_82" data-name="Group 82" transform="translate(865.551 16.813)">
    <g id="Group_77" data-name="Group 77">
      <rect id="Rectangle_3379" data-name="Rectangle 3379" width="14.253" height="30.147" transform="translate(-805.639 -7.686) rotate(45)" fill="none" stroke="#df5a35" stroke-miterlimit="10" stroke-width="2"/>
      <path id="Path_192" data-name="Path 192" d="M-826.125,14.664l-3.833,5.979,6.318,6.318,6.318-4.212" fill="none" stroke="#df5a35" stroke-miterlimit="10" stroke-width="2"/>
      <path id="Path_193" data-name="Path 193" d="M-829.256,22.75l-2.106,2.106,3.51,3.51,2.106-2.106" fill="none" stroke="#df5a35" stroke-miterlimit="10" stroke-width="2"/>
      <rect id="Rectangle_3380" data-name="Rectangle 3380" width="23.166" height="7.722" transform="translate(-846.104 41.001)" fill="none" stroke="#df5a35" stroke-miterlimit="10" stroke-width="2"/>
      <path id="Path_194" data-name="Path 194" d="M-789.61,46.875a26.318,26.318,0,0,1-23.15,13.782A26.3,26.3,0,0,1-834.723,48.85" fill="none" stroke="#df5a35" stroke-miterlimit="10" stroke-width="2"/>
      <path id="Path_195" data-name="Path 195" d="M-803.046,9.858a26.413,26.413,0,0,1,14.466,14.05" fill="none" stroke="#df5a35" stroke-miterlimit="10" stroke-width="2"/>
      <path id="Path_196" data-name="Path 196" d="M-794.344,45.261A21.4,21.4,0,0,1-812.76,55.743a21.352,21.352,0,0,1-15.767-6.926" fill="none" stroke="#df5a35" stroke-miterlimit="10" stroke-width="2"/>
      <path id="Path_197" data-name="Path 197" d="M-806.877,13.74A21.463,21.463,0,0,1-793.47,25.031" fill="none" stroke="#df5a35" stroke-miterlimit="10" stroke-width="2"/>
      <circle id="Ellipse_29" data-name="Ellipse 29" cx="11.232" cy="11.232" r="11.232" transform="translate(-800.475 24.154)" fill="none" stroke="#df5a35" stroke-miterlimit="10" stroke-width="2"/>
      <circle id="Ellipse_30" data-name="Ellipse 30" cx="6.318" cy="6.318" r="6.318" transform="translate(-795.561 29.068)" fill="none" stroke="#df5a35" stroke-miterlimit="10" stroke-width="2"/>
      <path id="Path_198" data-name="Path 198" d="M-828.334,66.848a15.07,15.07,0,0,1,4.658-8.528" fill="none" stroke="#df5a35" stroke-miterlimit="10" stroke-width="2"/>
      <path id="Path_199" data-name="Path 199" d="M-802.79,58.76a15.056,15.056,0,0,1,4.114,7.63" fill="none" stroke="#df5a35" stroke-miterlimit="10" stroke-width="2"/>
      <rect id="Rectangle_3381" data-name="Rectangle 3381" width="65.987" height="6.318" transform="translate(-846.104 66.975)" fill="none" stroke="#df5a35" stroke-miterlimit="10" stroke-width="2"/>
    </g>
    <circle id="Ellipse_31" data-name="Ellipse 31" cx="52.609" cy="52.609" r="52.609" transform="translate(-864.551 -15.813)" fill="none" stroke="#132b50" stroke-miterlimit="10" stroke-width="2"/>
    <g id="Group_79" data-name="Group 79">
      <g id="Group_78" data-name="Group 78">
        <path id="Path_200" data-name="Path 200" d="M-806.563,38.4c-2.651,5.667-10.918,7.4-10.918,7.4s-3.971-7.455-1.32-13.122,10.918-7.4,10.918-7.4S-803.913,32.73-806.563,38.4Z" fill="none" stroke="#132b50" stroke-miterlimit="10" stroke-width="2"/>
        <line id="Line_28" data-name="Line 28" x1="9.308" y2="20.09" transform="translate(-817.343 25.654)" fill="none" stroke="#132b50" stroke-miterlimit="10" stroke-width="2"/>
        <line id="Line_29" data-name="Line 29" x2="1.885" y2="5.198" transform="translate(-814.71 30.526)" fill="none" stroke="#132b50" stroke-miterlimit="10" stroke-width="2"/>
        <line id="Line_30" data-name="Line 30" x1="5.198" y2="1.885" transform="translate(-814.824 38.403)" fill="none" stroke="#132b50" stroke-miterlimit="10" stroke-width="2"/>
      </g>
    </g>
    <g id="Group_81" data-name="Group 81">
      <g id="Group_80" data-name="Group 80">
        <path id="Path_201" data-name="Path 201" d="M-835.3,20.056c3.133,7.8-2.746,17.5-2.746,17.5s-10.959-2.937-14.092-10.735,2.745-17.5,2.745-17.5S-838.434,12.259-835.3,20.056Z" fill="none" stroke="#132b50" stroke-miterlimit="10" stroke-width="2"/>
        <line id="Line_31" data-name="Line 31" x2="10.953" y2="27.762" transform="translate(-848.922 9.612)" fill="none" stroke="#132b50" stroke-miterlimit="10" stroke-width="2"/>
        <line id="Line_32" data-name="Line 32" x2="6.831" y2="2.915" transform="translate(-850.496 20.838)" fill="none" stroke="#132b50" stroke-miterlimit="10" stroke-width="2"/>
        <line id="Line_33" data-name="Line 33" x1="2.915" y2="6.831" transform="translate(-841.016 23.069)" fill="none" stroke="#132b50" stroke-miterlimit="10" stroke-width="2"/>
      </g>
    </g>
  </g>
</svg>
