<svg xmlns="http://www.w3.org/2000/svg" width="107.218" height="107.218" viewBox="0 0 107.218 107.218">
  <g id="Group_104" data-name="Group 104" transform="translate(347.037 7.345)">
    <g id="Group_96" data-name="Group 96">
      <circle id="Ellipse_50" data-name="Ellipse 50" cx="52.609" cy="52.609" r="52.609" transform="translate(-346.037 -6.345)" fill="none" stroke="#132b50" stroke-miterlimit="10" stroke-width="2"/>
    </g>
    <g id="Group_98" data-name="Group 98">
      <path id="Path_220" data-name="Path 220" d="M-275.392,64.539s-5.3-8.248-14.812-4.377c-8.69,3.538-6.732,12.624-6.732,12.624h-9.58s3.036-7.758-2.034-14.643a15.876,15.876,0,0,0-14.054-6.55V33.317h21.881L-298.2,46.95h22.821Z" fill="none" stroke="#132b50" stroke-linecap="round" stroke-linejoin="round" stroke-width="2"/>
      <g id="Group_97" data-name="Group 97">
        <circle id="Ellipse_51" data-name="Ellipse 51" cx="11.653" cy="11.653" r="11.653" transform="translate(-333.163 55.747)" fill="none" stroke="#132b50" stroke-linecap="round" stroke-linejoin="round" stroke-width="2"/>
        <circle id="Ellipse_52" data-name="Ellipse 52" cx="6.4" cy="6.4" r="6.4" transform="translate(-327.91 60.999)" fill="none" stroke="#132b50" stroke-linecap="round" stroke-linejoin="round" stroke-width="2"/>
      </g>
      <circle id="Ellipse_53" data-name="Ellipse 53" cx="7.987" cy="7.987" r="7.987" transform="translate(-293.254 63.003)" fill="none" stroke="#132b50" stroke-linecap="round" stroke-linejoin="round" stroke-width="2"/>
      <circle id="Ellipse_54" data-name="Ellipse 54" cx="4.387" cy="4.387" r="4.387" transform="translate(-289.654 66.603)" fill="none" stroke="#132b50" stroke-linecap="round" stroke-linejoin="round" stroke-width="2"/>
      <rect id="Rectangle_3382" data-name="Rectangle 3382" width="7.855" height="3.671" transform="translate(-286.417 50.26)" fill="none" stroke="#132b50" stroke-linecap="round" stroke-linejoin="round" stroke-width="2"/>
      <path id="Path_221" data-name="Path 221" d="M-282.826,46.445V39.264l3.254-1.234" fill="none" stroke="#132b50" stroke-linecap="round" stroke-linejoin="round" stroke-width="2"/>
      <line id="Line_42" data-name="Line 42" y2="2.132" transform="translate(-290.793 44.201)" fill="none" stroke="#132b50" stroke-linecap="round" stroke-linejoin="round" stroke-width="2"/>
    </g>
    <g id="Group_102" data-name="Group 102">
      <path id="Path_222" data-name="Path 222" d="M-256.738,24.343c0,3.908-4.219,7.075-4.219,7.075s-4.219-3.167-4.219-7.075,4.219-7.075,4.219-7.075S-256.738,20.436-256.738,24.343Z" fill="none" stroke="#df5a35" stroke-miterlimit="10" stroke-width="2"/>
      <g id="Group_99" data-name="Group 99">
        <path id="Path_223" data-name="Path 223" d="M-263.188,29.928c2.763,2.763,2.02,7.986,2.02,7.986s-5.224.744-7.987-2.019-2.019-7.987-2.019-7.987S-265.951,27.165-263.188,29.928Z" fill="none" stroke="#df5a35" stroke-miterlimit="10" stroke-width="2"/>
        <path id="Path_224" data-name="Path 224" d="M-258.488,29.928c-2.763,2.763-2.019,7.986-2.019,7.986s5.223.744,7.986-2.019,2.02-7.987,2.02-7.987S-255.725,27.165-258.488,29.928Z" fill="none" stroke="#df5a35" stroke-miterlimit="10" stroke-width="2"/>
      </g>
      <line id="Line_43" data-name="Line 43" y2="35.217" transform="translate(-260.632 37.78)" fill="none" stroke="#df5a35" stroke-miterlimit="10" stroke-width="2"/>
      <g id="Group_100" data-name="Group 100">
        <path id="Path_225" data-name="Path 225" d="M-263.188,39.928c2.763,2.763,2.02,7.986,2.02,7.986s-5.224.744-7.987-2.019-2.019-7.987-2.019-7.987S-265.951,37.165-263.188,39.928Z" fill="none" stroke="#df5a35" stroke-miterlimit="10" stroke-width="2"/>
        <path id="Path_226" data-name="Path 226" d="M-258.488,39.928c-2.763,2.763-2.019,7.986-2.019,7.986s5.223.744,7.986-2.019,2.02-7.987,2.02-7.987S-255.725,37.165-258.488,39.928Z" fill="none" stroke="#df5a35" stroke-miterlimit="10" stroke-width="2"/>
      </g>
      <g id="Group_101" data-name="Group 101">
        <path id="Path_227" data-name="Path 227" d="M-263.188,49.928c2.763,2.763,2.02,7.986,2.02,7.986s-5.224.744-7.987-2.019-2.019-7.987-2.019-7.987S-265.951,47.165-263.188,49.928Z" fill="none" stroke="#df5a35" stroke-miterlimit="10" stroke-width="2"/>
        <path id="Path_228" data-name="Path 228" d="M-258.488,49.928c-2.763,2.763-2.019,7.986-2.019,7.986s5.223.744,7.986-2.019,2.02-7.987,2.02-7.987S-255.725,47.165-258.488,49.928Z" fill="none" stroke="#df5a35" stroke-miterlimit="10" stroke-width="2"/>
      </g>
    </g>
    <g id="Group_103" data-name="Group 103">
      <circle id="Ellipse_55" data-name="Ellipse 55" cx="6.207" cy="6.207" r="6.207" transform="translate(-297.675 8.462)" fill="none" stroke="#df5a35" stroke-miterlimit="10" stroke-width="2"/>
      <line id="Line_44" data-name="Line 44" y2="6.244" transform="translate(-291.468 -1.168)" fill="none" stroke="#df5a35" stroke-miterlimit="10" stroke-width="2"/>
      <line id="Line_45" data-name="Line 45" x2="3.122" y2="5.408" transform="translate(-299.354 0.925)" fill="none" stroke="#df5a35" stroke-miterlimit="10" stroke-width="2"/>
      <line id="Line_46" data-name="Line 46" x2="5.408" y2="3.122" transform="translate(-305.137 6.68)" fill="none" stroke="#df5a35" stroke-miterlimit="10" stroke-width="2"/>
      <line id="Line_47" data-name="Line 47" x2="6.244" transform="translate(-307.267 14.556)" fill="none" stroke="#df5a35" stroke-miterlimit="10" stroke-width="2"/>
      <line id="Line_48" data-name="Line 48" y1="3.122" x2="5.408" transform="translate(-305.175 19.319)" fill="none" stroke="#df5a35" stroke-miterlimit="10" stroke-width="2"/>
      <line id="Line_49" data-name="Line 49" y1="5.408" x2="3.122" transform="translate(-299.419 22.817)" fill="none" stroke="#df5a35" stroke-miterlimit="10" stroke-width="2"/>
      <line id="Line_50" data-name="Line 50" y1="6.244" transform="translate(-291.544 24.11)" fill="none" stroke="#df5a35" stroke-miterlimit="10" stroke-width="2"/>
      <line id="Line_51" data-name="Line 51" x1="3.122" y1="5.408" transform="translate(-286.78 22.854)" fill="none" stroke="#df5a35" stroke-miterlimit="10" stroke-width="2"/>
      <line id="Line_52" data-name="Line 52" x1="5.408" y1="3.122" transform="translate(-283.283 19.385)" fill="none" stroke="#df5a35" stroke-miterlimit="10" stroke-width="2"/>
      <line id="Line_53" data-name="Line 53" x1="6.244" transform="translate(-281.989 14.631)" fill="none" stroke="#df5a35" stroke-miterlimit="10" stroke-width="2"/>
      <line id="Line_54" data-name="Line 54" x1="5.408" y2="3.122" transform="translate(-283.245 6.745)" fill="none" stroke="#df5a35" stroke-miterlimit="10" stroke-width="2"/>
      <line id="Line_55" data-name="Line 55" x1="3.122" y2="5.408" transform="translate(-286.715 0.963)" fill="none" stroke="#df5a35" stroke-miterlimit="10" stroke-width="2"/>
    </g>
  </g>
</svg>
