<svg xmlns="http://www.w3.org/2000/svg" width="107.218" height="107.218" viewBox="0 0 107.218 107.218">
  <g id="Group_89" data-name="Group 89" transform="translate(585.836 7.755)">
    <circle id="Ellipse_33" data-name="Ellipse 33" cx="52.609" cy="52.609" r="52.609" transform="translate(-584.836 -6.755)" fill="none" stroke="#132b50" stroke-miterlimit="10" stroke-width="2"/>
    <path id="Path_213" data-name="Path 213" d="M-533.127,45.389V25.714l-17.039-9.838-17.04,9.838V45.389l17.04,9.838Z" fill="none" stroke="#df5a35" stroke-miterlimit="10" stroke-width="2"/>
    <path id="Path_214" data-name="Path 214" d="M-506.3,49.778l7.35-4.244V25.859l-17.039-9.838-17.04,9.838V45.534l7.968,4.6" fill="none" stroke="#df5a35" stroke-miterlimit="10" stroke-width="2"/>
    <path id="Path_215" data-name="Path 215" d="M-525.1,50.316l-8.113-4.684-17.039,9.838V75.146l17.039,9.838,12.041-6.952" fill="none" stroke="#df5a35" stroke-miterlimit="10" stroke-width="2"/>
    <path id="Path_216" data-name="Path 216" d="M-504.089,54.734-515.731,34.57l-12.183,21.1a16.516,16.516,0,0,0-2.581,8.363,14.842,14.842,0,0,0,14.843,14.842A14.749,14.749,0,0,0-500.81,64.034,17.312,17.312,0,0,0-504.089,54.734Z" fill="none" stroke="#132b50" stroke-miterlimit="10" stroke-width="2"/>
  </g>
</svg>
