<svg xmlns="http://www.w3.org/2000/svg" width="107.218" height="107.218" viewBox="0 0 107.218 107.218">
  <g id="Group_107" data-name="Group 107" transform="translate(224.12 4.864)">
    <circle id="Ellipse_56" data-name="Ellipse 56" cx="52.609" cy="52.609" r="52.609" transform="translate(-223.12 -3.864)" fill="none" stroke="#132b50" stroke-miterlimit="10" stroke-width="2"/>
    <g id="Group_105" data-name="Group 105">
      <path id="Path_229" data-name="Path 229" d="M-156.936,44.064l-2.665,2.665a9.565,9.565,0,0,1-5.331,1.6c-3.2,0-6.4,2.666-6.4,2.666l-6.13,6.13s-3.465,2.932-.8,5.6,5.864-1.066,5.864-1.066,2.665-3.731,3.731-3.731,7.463,3.2,11.2-1.6" fill="none" stroke="#132b50" stroke-miterlimit="10" stroke-width="2"/>
      <path id="Path_230" data-name="Path 230" d="M-185.455,40.066l5.064,5.064-15.992,15.992-4.531-4.531" fill="none" stroke="#132b50" stroke-miterlimit="10" stroke-width="2"/>
      <path id="Path_231" data-name="Path 231" d="M-143.343,57.124l-4.8,4.8s-1.6,1.6-1.6,5.331-2.132,4.264-2.132,4.264" fill="none" stroke="#132b50" stroke-miterlimit="10" stroke-width="2"/>
      <path id="Path_232" data-name="Path 232" d="M-181.724,47.529a9.023,9.023,0,0,0,3.732,1.6,26.3,26.3,0,0,1,6.4,2.132" fill="none" stroke="#132b50" stroke-miterlimit="10" stroke-width="2"/>
      <path id="Path_233" data-name="Path 233" d="M-194.21,58.856s1.292.4,1.825,3.066,1.6,6.4,3.2,8" fill="none" stroke="#132b50" stroke-miterlimit="10" stroke-width="2"/>
      <path id="Path_234" data-name="Path 234" d="M-161.57,61.781l11.687,11.687a2.925,2.925,0,0,1-.33,4.1l0,0a2.925,2.925,0,0,1-4.1.33l-9.336-9.336" fill="none" stroke="#132b50" stroke-miterlimit="10" stroke-width="2"/>
      <path id="Path_235" data-name="Path 235" d="M-167.61,64.623l11.687,11.686a2.926,2.926,0,0,1-.33,4.1l0,0a2.926,2.926,0,0,1-4.1.33l-9.336-9.337" fill="none" stroke="#132b50" stroke-miterlimit="10" stroke-width="2"/>
      <path id="Path_236" data-name="Path 236" d="M-161.2,79.911a2.925,2.925,0,0,1-.33,4.1l0,0a2.925,2.925,0,0,1-4.1.33l-1.136-1.136" fill="none" stroke="#132b50" stroke-miterlimit="10" stroke-width="2"/>
      <rect id="Rectangle_3383" data-name="Rectangle 3383" width="6.025" height="9.492" rx="3.012" transform="translate(-185.271 66.707) rotate(45)" fill="none" stroke="#132b50" stroke-miterlimit="10" stroke-width="2"/>
      <rect id="Rectangle_3384" data-name="Rectangle 3384" width="6.025" height="11.759" rx="3.012" transform="translate(-179.146 69.049) rotate(45)" fill="none" stroke="#132b50" stroke-miterlimit="10" stroke-width="2"/>
      <rect id="Rectangle_3385" data-name="Rectangle 3385" width="6.025" height="11.759" rx="3.012" transform="matrix(0.707, 0.707, -0.707, 0.707, -175.031, 73.361)" fill="none" stroke="#132b50" stroke-miterlimit="10" stroke-width="2"/>
      <rect id="Rectangle_3386" data-name="Rectangle 3386" width="6.025" height="11.759" rx="3.012" transform="translate(-170.846 77.744) rotate(45)" fill="none" stroke="#132b50" stroke-miterlimit="10" stroke-width="2"/>
    </g>
    <g id="Group_106" data-name="Group 106">
      <path id="Path_237" data-name="Path 237" d="M-147.128,19.218h-47.234l.9,7.678h16.127V44.588h10.682V26.9h5.007v3.172a4,4,0,0,0,4.005,4h0a4,4,0,0,0,4-4V26.9h5.613Z" fill="none" stroke="#df5a35" stroke-miterlimit="10" stroke-width="2"/>
      <path id="Path_238" data-name="Path 238" d="M-194.425,19.009c0-3.353,10.578-6.071,23.628-6.071s23.627,2.718,23.627,6.071" fill="none" stroke="#df5a35" stroke-miterlimit="10" stroke-width="2"/>
      <path id="Path_239" data-name="Path 239" d="M-177.338,39.747a4.34,4.34,0,0,1-4.34-4.339,4.34,4.34,0,0,1,4.34-4.34" fill="none" stroke="#df5a35" stroke-miterlimit="10" stroke-width="2"/>
    </g>
  </g>
</svg>
