<svg xmlns="http://www.w3.org/2000/svg" width="107.218" height="107.218" viewBox="0 0 107.218 107.218">
  <g id="Group_111" data-name="Group 111" transform="translate(111.408 2.025)">
    <g id="Group_108" data-name="Group 108">
      <circle id="Ellipse_57" data-name="Ellipse 57" cx="52.609" cy="52.609" r="52.609" transform="translate(-110.408 -1.025)" fill="none" stroke="#132b50" stroke-miterlimit="10" stroke-width="2"/>
    </g>
    <g id="Group_109" data-name="Group 109">
      <path id="Path_240" data-name="Path 240" d="M-69.228,21.148c6.34,4.821,7.722,13.669,7.722,13.669s-8.9,1.032-15.235-3.788S-84.463,17.36-84.463,17.36-75.567,16.327-69.228,21.148Z" fill="none" stroke="#132b50" stroke-miterlimit="10" stroke-width="2"/>
      <path id="Path_241" data-name="Path 241" d="M-48.642,28.124c4.031-5.3,11.43-6.457,11.43-6.457s.864,7.439-3.167,12.74-11.43,6.457-11.43,6.457S-52.673,33.425-48.642,28.124Z" fill="none" stroke="#132b50" stroke-miterlimit="10" stroke-width="2"/>
      <path id="Path_242" data-name="Path 242" d="M-62.236,34.52s7.291,3.116,7.415,29.891" fill="none" stroke="#132b50" stroke-miterlimit="10" stroke-width="2"/>
      <path id="Path_243" data-name="Path 243" d="M-51.757,40.864s-4.2,3.344-3.683,12.26" fill="none" stroke="#132b50" stroke-miterlimit="10" stroke-width="2"/>
    </g>
    <g id="Group_110" data-name="Group 110">
      <path id="Path_244" data-name="Path 244" d="M-68.643,82.678a8.4,8.4,0,0,1-1.84.2H-80.942A9.124,9.124,0,0,1-89.8,73.51v0a9.125,9.125,0,0,1,8.856-9.371h10.459a9.125,9.125,0,0,1,8.856,9.371v0A9.724,9.724,0,0,1-62.984,78.5" fill="none" stroke="#df5a35" stroke-miterlimit="10" stroke-width="2"/>
      <path id="Path_245" data-name="Path 245" d="M-49.751,82.69a8.408,8.408,0,0,1-1.785.19H-61.995a9.124,9.124,0,0,1-8.856-9.37v0a9.774,9.774,0,0,1,1.03-4.39" fill="none" stroke="#df5a35" stroke-miterlimit="10" stroke-width="2"/>
      <path id="Path_246" data-name="Path 246" d="M-64.556,64.535a8.4,8.4,0,0,1,2.561-.4h10.459a9.125,9.125,0,0,1,8.856,9.371v0a9.751,9.751,0,0,1-1.173,4.664" fill="none" stroke="#df5a35" stroke-miterlimit="10" stroke-width="2"/>
      <path id="Path_247" data-name="Path 247" d="M-45.679,64.631a8.407,8.407,0,0,1,2.843-.494h10.46a9.124,9.124,0,0,1,8.855,9.371v0a9.123,9.123,0,0,1-8.855,9.37h-10.46a9.124,9.124,0,0,1-8.855-9.37v0A9.767,9.767,0,0,1-50.654,69.1" fill="none" stroke="#df5a35" stroke-miterlimit="10" stroke-width="2"/>
    </g>
  </g>
</svg>
