<svg id="Group_112" data-name="Group 112" xmlns="http://www.w3.org/2000/svg" width="107.218" height="107.366" viewBox="0 0 107.218 107.366">
  <circle id="Ellipse_58" data-name="Ellipse 58" cx="52.609" cy="52.609" r="52.609" transform="translate(1 1)" fill="none" stroke="#132b50" stroke-miterlimit="10" stroke-width="2"/>
  <path id="Path_248" data-name="Path 248" d="M100.373,78.451a163.873,163.873,0,0,0-65.882,24.225" fill="none" stroke="#132b50" stroke-miterlimit="10" stroke-width="2"/>
  <path id="Path_249" data-name="Path 249" d="M89.852,91.988a164.845,164.845,0,0,0-37.786,14.5" fill="none" stroke="#132b50" stroke-miterlimit="10" stroke-width="2"/>
  <path id="Path_250" data-name="Path 250" d="M3.355,68.806c5.525.71,24.62,3.613,43.328,11.743" fill="none" stroke="#132b50" stroke-miterlimit="10" stroke-width="2"/>
  <path id="Path_251" data-name="Path 251" d="M8.429,79.971A177.988,177.988,0,0,1,33.421,87.44" fill="none" stroke="#132b50" stroke-miterlimit="10" stroke-width="2"/>
  <path id="Path_252" data-name="Path 252" d="M22.873,42.268c0,3.4-3.668,6.15-3.668,6.15s-3.667-2.754-3.667-6.15S19.2,36.117,19.2,36.117,22.873,38.871,22.873,42.268Z" fill="none" stroke="#df5a35" stroke-miterlimit="10" stroke-width="2"/>
  <path id="Path_253" data-name="Path 253" d="M17.266,47.122c2.4,2.4,1.755,6.943,1.755,6.943s-4.54.646-6.942-1.756-1.755-6.942-1.755-6.942S14.864,44.721,17.266,47.122Z" fill="none" stroke="#df5a35" stroke-miterlimit="10" stroke-width="2"/>
  <path id="Path_254" data-name="Path 254" d="M21.352,47.122c-2.4,2.4-1.756,6.943-1.756,6.943s4.541.646,6.942-1.756,1.756-6.942,1.756-6.942S23.753,44.721,21.352,47.122Z" fill="none" stroke="#df5a35" stroke-miterlimit="10" stroke-width="2"/>
  <line id="Line_56" data-name="Line 56" y2="6.094" transform="translate(19.487 53.948)" fill="none" stroke="#df5a35" stroke-miterlimit="10" stroke-width="2"/>
  <path id="Path_255" data-name="Path 255" d="M56.559,50.393c0,3.4-3.668,6.15-3.668,6.15s-3.668-2.753-3.668-6.15,3.668-6.15,3.668-6.15S56.559,47,56.559,50.393Z" fill="none" stroke="#df5a35" stroke-miterlimit="10" stroke-width="2"/>
  <path id="Path_256" data-name="Path 256" d="M50.952,55.248c2.4,2.4,1.755,6.942,1.755,6.942s-4.54.646-6.942-1.756-1.756-6.942-1.756-6.942S48.55,52.846,50.952,55.248Z" fill="none" stroke="#df5a35" stroke-miterlimit="10" stroke-width="2"/>
  <path id="Path_257" data-name="Path 257" d="M55.037,55.248c-2.4,2.4-1.755,6.942-1.755,6.942s4.54.646,6.942-1.756,1.756-6.942,1.756-6.942S57.439,52.846,55.037,55.248Z" fill="none" stroke="#df5a35" stroke-miterlimit="10" stroke-width="2"/>
  <line id="Line_57" data-name="Line 57" y2="8.012" transform="translate(53.173 62.073)" fill="none" stroke="#df5a35" stroke-miterlimit="10" stroke-width="2"/>
  <path id="Path_258" data-name="Path 258" d="M90.075,50.393c0,3.4-3.668,6.15-3.668,6.15s-3.667-2.753-3.667-6.15,3.667-6.15,3.667-6.15S90.075,47,90.075,50.393Z" fill="none" stroke="#df5a35" stroke-miterlimit="10" stroke-width="2"/>
  <path id="Path_259" data-name="Path 259" d="M84.468,55.248c2.4,2.4,1.755,6.942,1.755,6.942s-4.54.646-6.942-1.756-1.755-6.942-1.755-6.942S82.066,52.846,84.468,55.248Z" fill="none" stroke="#df5a35" stroke-miterlimit="10" stroke-width="2"/>
  <path id="Path_260" data-name="Path 260" d="M88.554,55.248c-2.4,2.4-1.756,6.942-1.756,6.942s4.541.646,6.942-1.756S95.5,53.492,95.5,53.492,90.955,52.846,88.554,55.248Z" fill="none" stroke="#df5a35" stroke-miterlimit="10" stroke-width="2"/>
  <line id="Line_58" data-name="Line 58" y2="8.012" transform="translate(86.689 62.073)" fill="none" stroke="#df5a35" stroke-miterlimit="10" stroke-width="2"/>
  <circle id="Ellipse_59" data-name="Ellipse 59" cx="6.207" cy="6.207" r="6.207" transform="translate(62.257 20.77)" fill="none" stroke="#132b50" stroke-miterlimit="10" stroke-width="2"/>
  <line id="Line_59" data-name="Line 59" y2="6.244" transform="translate(68.464 11.14)" fill="none" stroke="#132b50" stroke-miterlimit="10" stroke-width="2"/>
  <line id="Line_60" data-name="Line 60" x2="3.122" y2="5.408" transform="translate(60.578 13.233)" fill="none" stroke="#132b50" stroke-miterlimit="10" stroke-width="2"/>
  <line id="Line_61" data-name="Line 61" x2="5.408" y2="3.122" transform="translate(54.796 18.988)" fill="none" stroke="#132b50" stroke-miterlimit="10" stroke-width="2"/>
  <line id="Line_62" data-name="Line 62" x2="6.244" transform="translate(52.665 26.864)" fill="none" stroke="#132b50" stroke-miterlimit="10" stroke-width="2"/>
  <line id="Line_63" data-name="Line 63" y1="3.122" x2="5.408" transform="translate(54.758 31.627)" fill="none" stroke="#132b50" stroke-miterlimit="10" stroke-width="2"/>
  <line id="Line_64" data-name="Line 64" y1="5.408" x2="3.122" transform="translate(60.513 35.124)" fill="none" stroke="#132b50" stroke-miterlimit="10" stroke-width="2"/>
  <line id="Line_65" data-name="Line 65" y1="6.244" transform="translate(68.389 36.418)" fill="none" stroke="#132b50" stroke-miterlimit="10" stroke-width="2"/>
  <line id="Line_66" data-name="Line 66" x1="3.122" y1="5.408" transform="translate(73.153 35.162)" fill="none" stroke="#132b50" stroke-miterlimit="10" stroke-width="2"/>
  <line id="Line_67" data-name="Line 67" x1="5.408" y1="3.122" transform="translate(76.65 31.692)" fill="none" stroke="#132b50" stroke-miterlimit="10" stroke-width="2"/>
  <line id="Line_68" data-name="Line 68" x1="6.244" transform="translate(77.944 26.939)" fill="none" stroke="#132b50" stroke-miterlimit="10" stroke-width="2"/>
  <line id="Line_69" data-name="Line 69" x1="5.408" y2="3.122" transform="translate(76.687 19.053)" fill="none" stroke="#132b50" stroke-miterlimit="10" stroke-width="2"/>
  <line id="Line_70" data-name="Line 70" x1="3.122" y2="5.408" transform="translate(73.218 13.27)" fill="none" stroke="#132b50" stroke-miterlimit="10" stroke-width="2"/>
  <path id="Path_261" data-name="Path 261" d="M104.9,67.347s-41.637-.741-83.482,27.732" fill="none" stroke="#132b50" stroke-miterlimit="10" stroke-width="2"/>
  <path id="Path_262" data-name="Path 262" d="M1.77,57.9s36.225,3.5,60.713,16.7" fill="none" stroke="#132b50" stroke-miterlimit="10" stroke-width="2"/>
</svg>
